<svg xmlns="http://www.w3.org/2000/svg" viewBox="0 0 243 98.78"><defs><style>.cls-1{fill:#4d4d4d;}</style></defs><title>Asset 1</title><g id="Layer_2" data-name="Layer 2"><g id="Layer_1-2" data-name="Layer 1"><path class="cls-1" d="M20.24,98.55A31,31,0,0,1,16,98.23,16.44,16.44,0,0,1,7.15,94a17.12,17.12,0,0,1-3.66-5A30.69,30.69,0,0,1,1,81.34,53.87,53.87,0,0,1,0,70.51V40.8A51,51,0,0,1,1,30a30,30,0,0,1,2.58-7.56,16,16,0,0,1,8-7.66,17.2,17.2,0,0,1,4.46-1.26,32.66,32.66,0,0,1,4.13-.29,21.66,21.66,0,0,1,8.31,1.4,13.7,13.7,0,0,1,5.37,3.83,14.51,14.51,0,0,1,2.88,5.67A27.28,27.28,0,0,1,37.61,31a42.68,42.68,0,0,1-.27,5c-.18,1.52-.45,3.2-.8,5H26V36.75q0-6.89-1.51-10.3C23.48,24.17,22,23,20.06,23a6.65,6.65,0,0,0-3.07.68A5.43,5.43,0,0,0,14.8,26a14.78,14.78,0,0,0-1.34,4.33A40.2,40.2,0,0,0,13,37V75.3a48.41,48.41,0,0,0,.36,6.49,12.71,12.71,0,0,0,1.18,4.15,5,5,0,0,0,2.14,2.22,7.15,7.15,0,0,0,3.21.66,5,5,0,0,0,2.31-.56,5.46,5.46,0,0,0,1.95-1.76,9.49,9.49,0,0,0,1.34-3A16.33,16.33,0,0,0,26,79.15V71H38v7.76q0,10.11-4.59,14.92T20.24,98.55Z"/><path class="cls-1" d="M48,0H60V73H77V83H48Z"/><path class="cls-1" d="M94.81,14h14.48l15.36,83H111.34l-2.15-14H94.92L92.86,97H79.5Zm13.46,59-5.92-42h-.54l-6,42Z"/><path class="cls-1" d="M130.19,81a36.85,36.85,0,0,1,.31-5,18.94,18.94,0,0,1,.5-3h10v2.09a39.69,39.69,0,0,0,.4,6,14.42,14.42,0,0,0,1.34,4.41,6.52,6.52,0,0,0,2.47,2.71,7.46,7.46,0,0,0,3.79.91,7,7,0,0,0,5.38-2,8.25,8.25,0,0,0,1.86-5.83,23.91,23.91,0,0,0-.26-3.63,15.64,15.64,0,0,0-.91-3.27A22.56,22.56,0,0,0,153.33,71a43.43,43.43,0,0,0-2.81-4L137.67,51.15A39.94,39.94,0,0,1,132.38,42a26,26,0,0,1-1.86-9.83,22.26,22.26,0,0,1,1.27-7.68,17.22,17.22,0,0,1,3.64-6,16.32,16.32,0,0,1,5.88-3.94,21.27,21.27,0,0,1,7.93-1.4,22.36,22.36,0,0,1,9,1.57A15.54,15.54,0,0,1,164,18.83a15.21,15.21,0,0,1,3,5.74,24.11,24.11,0,0,1,.88,6.38,28.75,28.75,0,0,1-.41,5c-.27,1.53-.58,3.21-.93,5H157V37q0-6.7-1.86-10.27a6.31,6.31,0,0,0-6-3.57,6.5,6.5,0,0,0-5.2,2,7.94,7.94,0,0,0-1.71,5.35,18.26,18.26,0,0,0,.26,3.2,13.47,13.47,0,0,0,.76,2.63,15.31,15.31,0,0,0,1.22,2.34q.7,1.14,1.62,2.37L160.38,59a51.89,51.89,0,0,1,6,10.12,25.61,25.61,0,0,1,2.1,10.27,22.82,22.82,0,0,1-1.36,8.08,16.58,16.58,0,0,1-10,10,22.6,22.6,0,0,1-8,1.35,24,24,0,0,1-9.17-1.52,15.36,15.36,0,0,1-5.81-4,14.54,14.54,0,0,1-3.05-5.72A24.46,24.46,0,0,1,130.19,81Z"/><path class="cls-1" d="M179,14h13V73h16l-1-59h13V97H207V83H192V97H179Z"/><rect class="cls-1" x="48" y="73" width="195" height="10"/></g></g></svg>